<svg xmlns="http://www.w3.org/2000/svg" width="512" height="512" id="apple"><path fill="#1A1A1A" fill-rule="evenodd" d="M434.478 16H77.519C43.718 16 16 43.721 16 77.521v356.957C16 468.278 43.718 496 77.519 496h356.959C468.281 496 496 468.278 496 434.479V77.521C496 43.721 468.281 16 434.478 16zM272.265 120.046c11.384-13.523 30.562-23.601 46.389-24.235 2.013 18.732-5.401 37.599-16.386 51.144-10.98 13.537-29.012 24.107-46.699 22.704-2.362-18.454 6.532-37.574 16.696-49.613zm90.066 256.35c-13.099 19.537-26.713 38.974-48.15 39.351-21.072.398-27.852-12.696-51.971-12.696-24.097 0-31.628 12.319-51.578 13.095-20.695.813-36.449-21.061-49.675-40.519-22.878-33.626-41.179-90.802-29.506-137.278 2.147-8.492 5.271-16.606 9.555-24.155 13.767-24.369 38.404-39.782 65.109-40.192 20.328-.377 39.532 13.947 51.948 13.947 12.442 0 35.738-17.193 60.252-14.69 10.27.446 39.064 4.229 57.586 31.74-1.026.688-16.712 9.997-26.426 28.809-4.483 8.691-7.697 19.403-7.553 32.229.402 48.47 41.745 64.568 42.23 64.786-.38 1.121-6.63 23.01-21.821 45.573z" clip-rule="evenodd"></path></svg>